<svg width="161" height="25" viewBox="0 0 161 25" fill="none" xmlns="http://www.w3.org/2000/svg">
<path d="M48.1078 6H41.8838V18H48.1078C49.0518 18 49.8837 17.888 50.6038 17.648C51.3238 17.408 51.9158 17.072 52.3958 16.624C52.8598 16.176 53.2118 15.648 53.4518 15.008C53.6758 14.368 53.8038 13.664 53.8038 12.88V11.12C53.8038 10.352 53.6758 9.648 53.4518 9.008C53.2118 8.368 52.8598 7.84 52.3958 7.392C51.9158 6.944 51.3238 6.608 50.6038 6.368C49.8837 6.128 49.0518 6 48.1078 6ZM47.8998 8.528C48.9078 8.528 49.5798 8.736 49.9318 9.12C50.2678 9.504 50.4438 10.176 50.4438 11.136V12.848C50.4438 13.808 50.2678 14.496 49.9158 14.88C49.5638 15.28 48.8758 15.472 47.8198 15.472H45.0838V8.528H47.8998ZM64.4726 18H67.8006L63.8486 8.288C63.5446 7.552 63.1606 6.944 62.6806 6.496C62.2006 6.048 61.5606 5.808 60.7286 5.808C59.9286 5.808 59.2886 6.048 58.8406 6.496C58.3926 6.96 58.0086 7.568 57.7046 8.32L53.7206 18H56.9526L57.9126 15.488H63.5286L64.4726 18ZM60.4566 8.896C60.4886 8.816 60.5206 8.752 60.5686 8.688C60.6006 8.64 60.6646 8.608 60.7446 8.608C60.8246 8.608 60.8886 8.64 60.9206 8.704C60.9526 8.768 61.0006 8.832 61.0326 8.896L62.5846 13.008H58.8726L60.4566 8.896ZM74.819 13.536C75.363 13.696 75.731 13.856 75.923 13.984C76.115 14.112 76.227 14.304 76.227 14.56C76.227 14.784 76.147 14.96 75.987 15.12C75.827 15.28 75.539 15.36 75.139 15.36H68.995V18H74.659C75.427 18 76.115 17.904 76.691 17.712C77.267 17.52 77.747 17.264 78.131 16.944C78.515 16.624 78.787 16.256 78.979 15.808C79.171 15.376 79.267 14.912 79.267 14.416C79.267 13.472 78.947 12.736 78.323 12.208C77.699 11.68 76.771 11.232 75.539 10.864L72.611 10.016C72.307 9.936 72.083 9.84 71.955 9.712C71.827 9.584 71.763 9.424 71.763 9.232C71.763 9.088 71.827 8.96 71.971 8.832C72.099 8.704 72.339 8.64 72.691 8.64H78.867V6H72.707C71.427 6 70.435 6.304 69.731 6.88C69.027 7.472 68.675 8.272 68.675 9.264C68.675 10.064 68.931 10.752 69.475 11.328C70.003 11.904 70.819 12.368 71.939 12.688L74.819 13.536ZM80.9463 18H84.1463V13.344H89.8263V18H93.0263V6H89.8263V10.544H84.1463V6H80.9463V18ZM100.943 6H95.1025V18H101.135C103.023 18 104.351 17.76 105.151 17.28C105.935 16.8 106.335 15.984 106.335 14.848V14.288C106.335 13.776 106.159 13.312 105.823 12.88C105.471 12.448 104.895 12.112 104.095 11.872C104.831 11.648 105.327 11.312 105.615 10.896C105.887 10.48 106.031 10.016 106.031 9.52V8.992C106.031 8.4 105.919 7.904 105.695 7.52C105.471 7.136 105.151 6.832 104.735 6.608C104.319 6.384 103.791 6.24 103.151 6.144C102.51 6.048 101.775 6 100.943 6ZM101.167 8.272C101.807 8.272 102.223 8.368 102.431 8.544C102.639 8.72 102.751 8.992 102.751 9.344V9.712C102.751 10.08 102.639 10.336 102.431 10.496C102.207 10.656 101.759 10.736 101.087 10.736H98.3025V8.272H101.167ZM101.471 13.104C102.127 13.104 102.559 13.216 102.751 13.408C102.943 13.616 103.055 13.904 103.055 14.256V14.64C103.055 15.008 102.943 15.28 102.751 15.456C102.543 15.648 102.095 15.728 101.391 15.728H98.3025V13.104H101.471ZM120.157 12.832V11.168C120.157 10.368 120.029 9.648 119.789 8.992C119.549 8.336 119.197 7.776 118.717 7.312C118.237 6.848 117.629 6.48 116.893 6.224C116.157 5.968 115.293 5.84 114.333 5.84H113.277C112.301 5.84 111.453 5.968 110.717 6.224C109.981 6.48 109.373 6.848 108.893 7.312C108.413 7.776 108.045 8.336 107.805 8.992C107.565 9.648 107.453 10.368 107.453 11.168V12.832C107.453 13.632 107.565 14.368 107.805 15.024C108.045 15.68 108.413 16.24 108.893 16.704C109.373 17.168 109.981 17.52 110.717 17.776C111.453 18.032 112.301 18.16 113.277 18.16H114.333C115.293 18.16 116.157 18.032 116.893 17.776C117.629 17.52 118.237 17.168 118.717 16.704C119.197 16.24 119.549 15.68 119.789 15.024C120.029 14.368 120.157 13.632 120.157 12.832ZM110.812 12.96V11.008C110.812 10.064 110.989 9.392 111.341 9.008C111.693 8.624 112.317 8.416 113.181 8.416H114.429C115.293 8.416 115.901 8.624 116.253 9.008C116.605 9.392 116.797 10.064 116.797 11.008V12.96C116.797 13.92 116.605 14.592 116.253 14.976C115.901 15.376 115.293 15.568 114.429 15.568H113.181C112.317 15.568 111.693 15.376 111.341 14.976C110.989 14.592 110.812 13.92 110.812 12.96ZM130.832 18H134.16L130.208 8.288C129.904 7.552 129.52 6.944 129.04 6.496C128.56 6.048 127.92 5.808 127.088 5.808C126.288 5.808 125.648 6.048 125.2 6.496C124.752 6.96 124.368 7.568 124.064 8.32L120.08 18H123.312L124.272 15.488H129.888L130.832 18ZM126.816 8.896C126.848 8.816 126.88 8.752 126.928 8.688C126.96 8.64 127.024 8.608 127.104 8.608C127.184 8.608 127.248 8.64 127.28 8.704C127.312 8.768 127.36 8.832 127.392 8.896L128.944 13.008H125.232L126.816 8.896ZM146.794 18L142.73 13.088H143.114C143.61 13.088 144.09 13.024 144.538 12.88C144.986 12.736 145.386 12.528 145.722 12.256C146.058 12 146.33 11.664 146.538 11.28C146.73 10.896 146.842 10.448 146.842 9.936V9.248C146.842 8.112 146.474 7.28 145.738 6.768C145.002 6.256 143.85 6 142.314 6H135.274V18H138.474V8.464H142.634C143.018 8.464 143.29 8.56 143.45 8.72C143.61 8.896 143.706 9.136 143.706 9.456V9.984C143.706 10.288 143.61 10.544 143.45 10.736C143.274 10.928 143.018 11.024 142.666 11.024H141.082C140.538 11.024 140.106 11.168 139.786 11.44C139.466 11.712 139.306 12.112 139.306 12.624C139.306 12.864 139.354 13.136 139.466 13.424C139.562 13.728 139.754 14.032 140.026 14.336L143.21 18H146.794ZM154.42 6H148.196V18H154.42C155.364 18 156.196 17.888 156.916 17.648C157.636 17.408 158.228 17.072 158.708 16.624C159.172 16.176 159.524 15.648 159.764 15.008C159.988 14.368 160.116 13.664 160.116 12.88V11.12C160.116 10.352 159.988 9.648 159.764 9.008C159.524 8.368 159.172 7.84 158.708 7.392C158.228 6.944 157.636 6.608 156.916 6.368C156.196 6.128 155.364 6 154.42 6ZM154.212 8.528C155.22 8.528 155.892 8.736 156.244 9.12C156.58 9.504 156.756 10.176 156.756 11.136V12.848C156.756 13.808 156.58 14.496 156.228 14.88C155.876 15.28 155.188 15.472 154.132 15.472H151.396V8.528H154.212Z" fill="#19242F"/>
<rect width="34" height="25" rx="5" fill="#DC1E02"/>
<path d="M6.54109 19H10.1411V13.924H17.1791V10.954H10.1411V8.47H17.1791V5.5H6.54109V19ZM18.9759 19H28.9119V16.246H25.9779V8.776C25.9779 7.84 25.6719 7.048 25.0599 6.436C24.4479 5.824 23.6199 5.5 22.6119 5.5H19.1559V8.416H21.8379C22.0179 8.416 22.1439 8.47 22.2339 8.578C22.3239 8.686 22.3779 8.83 22.3779 9.01V16.246H18.9759V19Z" fill="white"/>
</svg>
